<?xml version="1.0" encoding="iso-8859-1"?>
<!-- Generator: Adobe Illustrator 19.0.0, SVG Export Plug-In . SVG Version: 6.00 Build 0)  -->
<svg version="1.1" id="Capa_1" xmlns="http://www.w3.org/2000/svg" xmlns:xlink="http://www.w3.org/1999/xlink" x="0px" y="0px"
	 viewBox="0 0 511.999 511.999" style="enable-background:new 0 0 511.999 511.999;" xml:space="preserve">
<g>
	<g>
		<path d="M192.362,42.072c-2.647-4.851-8.724-6.634-13.575-3.988l-0.213,0.116c-4.85,2.647-6.635,8.725-3.988,13.574
			c1.817,3.329,5.248,5.213,8.79,5.213c1.62,0,3.262-0.395,4.785-1.226l0.213-0.116C193.224,52.999,195.009,46.921,192.362,42.072z"
			/>
	</g>
</g>
<g>
	<g>
		<path d="M367.231,21.986C319.587-6.3,262.103-7.352,213.46,19.175c-4.851,2.646-6.638,8.723-3.993,13.573
			c2.646,4.851,8.722,6.639,13.573,3.993c42.379-23.115,92.464-22.198,133.976,2.448c41.51,24.645,66.292,68.178,66.292,116.454
			v205.758c0,72.007-58.582,130.587-130.587,130.587c-37.387,0-72.014-15.807-96.283-42.329l44.418-28.267
			c0.21-0.134,0.406-0.281,0.604-0.428c13.957,12.022,32,19.001,51.26,19.001c43.321,0,78.564-35.244,78.564-78.564V155.644
			c0-29.732-15.263-56.544-40.828-71.721c-25.565-15.177-56.409-15.741-82.512-1.507l-66.847,36.452
			c-34.975,19.073-49.739,61.123-34.377,97.862l3.041,7.836L101.81,244.72l-2.893-7.453c-0.033-0.085-0.067-0.17-0.103-0.254
			c-12.444-29.618-13.448-62.63-2.828-92.948c10.62-30.321,32.002-55.49,60.207-70.87c4.851-2.645,6.639-8.722,3.994-13.572
			c-2.645-4.852-8.722-6.64-13.573-3.994c-32.564,17.757-57.25,46.815-69.512,81.822c-12.246,34.961-11.103,73.021,3.211,107.185
			l4.442,11.442c-1.665,2.147-3.052,4.529-4.107,7.112c-3.042,7.453-3,15.645,0.105,23.033l35.452,85.2
			c0.004,0.011,0.009,0.022,0.014,0.033c3.119,7.421,8.942,13.184,16.394,16.225c2.819,1.151,5.745,1.857,8.693,2.125l12.574,29.928
			c23.547,56.049,78.046,92.266,138.841,92.266c83.039,0,150.596-67.557,150.596-150.597V155.644
			C443.318,100.236,414.874,50.27,367.231,21.986z M190.678,136.435l66.847-36.452c19.84-10.819,43.286-10.393,62.717,1.146
			c19.432,11.537,31.033,31.917,31.033,54.516v205.758c0,32.287-26.268,58.555-58.555,58.555c-23.639,0-44.828-14.081-53.984-35.873
			l-12.591-29.969c6.801-8.361,8.903-20.105,4.453-30.693l-35.465-85.232c-4.555-10.841-14.753-17.62-25.753-18.382l-4.054-10.443
			c-0.033-0.085-0.067-0.17-0.103-0.254C153.765,181.84,164.709,150.596,190.678,136.435z M147.924,369.115
			c-0.089,0.037-0.179,0.063-0.268,0.097c-0.235,0.091-0.47,0.184-0.713,0.257c-0.014,0.004-0.028,0.006-0.041,0.01
			c-0.315,0.094-0.635,0.175-0.958,0.239c-4.603,0.903-9.378-1.513-11.273-6.002l-23.91-57.462l53.62-22.535
			c5.093-2.141,7.487-8.006,5.346-13.099c-2.141-5.094-8.005-7.489-13.099-5.347l-53.555,22.507l-3.861-9.277
			c-1.047-2.494-1.062-5.247-0.04-7.753s2.959-4.462,5.453-5.51l58.798-24.712c5.151-2.163,11.099,0.266,13.249,5.381l35.465,85.233
			c1.048,2.494,1.062,5.246,0.04,7.752c-0.755,1.851-2.013,3.4-3.623,4.507c-0.579,0.397-1.196,0.736-1.831,1.003L147.924,369.115z
			 M184.043,433.833c-4.526-6.81-8.465-14.108-11.716-21.848l-11.218-26.704l15.365-6.458l32.595-13.698l11.222,26.709
			c2.102,5.003,4.687,9.696,7.67,14.051L184.043,433.833z"/>
	</g>
</g>
<g>
	<g>
		<path d="M200.545,389.874c-1.871-1.861-4.442-2.931-7.083-2.931c-2.631,0-5.212,1.07-7.073,2.931
			c-1.861,1.862-2.931,4.442-2.931,7.073s1.07,5.212,2.931,7.072c1.861,1.861,4.443,2.932,7.073,2.932
			c2.641,0,5.212-1.07,7.083-2.932c1.861-1.86,2.921-4.441,2.921-7.072S202.406,391.735,200.545,389.874z"/>
	</g>
</g>
<g>
	<g>
		<path d="M408.371,165.922c-1.861-1.862-4.432-2.921-7.073-2.921c-2.631,0-5.212,1.06-7.073,2.921
			c-1.861,1.86-2.931,4.441-2.931,7.083c0,2.631,1.07,5.212,2.931,7.072c1.861,1.861,4.442,2.921,7.073,2.921
			c2.641,0,5.212-1.06,7.073-2.921c1.861-1.86,2.931-4.441,2.931-7.072C411.302,170.363,410.232,167.782,408.371,165.922z"/>
	</g>
</g>
<g>
	<g>
		<path d="M401.299,201.324c-5.526,0-10.005,4.479-10.005,10.005v101.98c0,5.525,4.479,10.005,10.005,10.005
			s10.005-4.48,10.005-10.005v-101.98C411.303,205.804,406.824,201.324,401.299,201.324z"/>
	</g>
</g>
<g>
</g>
<g>
</g>
<g>
</g>
<g>
</g>
<g>
</g>
<g>
</g>
<g>
</g>
<g>
</g>
<g>
</g>
<g>
</g>
<g>
</g>
<g>
</g>
<g>
</g>
<g>
</g>
<g>
</g>
</svg>
