<?xml version="1.0" encoding="iso-8859-1"?>
<!-- Generator: Adobe Illustrator 19.0.0, SVG Export Plug-In . SVG Version: 6.00 Build 0)  -->
<svg version="1.1" id="Layer_1" xmlns="http://www.w3.org/2000/svg" xmlns:xlink="http://www.w3.org/1999/xlink" x="0px" y="0px"
	 viewBox="0 0 512.004 512.004" style="enable-background:new 0 0 512.004 512.004;" xml:space="preserve">
<g>
	<g>
		<path d="M313.843,0.002c-109.278,0-198.161,88.883-198.161,198.161c0,109.261,88.9,198.161,198.161,198.161
			s198.161-88.9,198.161-198.161C512.004,88.885,423.121,0.002,313.843,0.002z M313.843,362.191
			c-90.436,0-164.028-73.591-164.028-164.028S223.407,34.135,313.843,34.135s164.028,73.591,164.028,164.028
			S404.297,362.191,313.843,362.191z"/>
	</g>
</g>
<g>
	<g>
		<path d="M196.8,315.206c-6.673-6.673-17.459-6.673-24.132,0L5.005,482.869c-6.673,6.673-6.673,17.459,0,24.132
			c3.328,3.328,7.697,5,12.066,5s8.738-1.672,12.066-5L196.8,339.339C203.473,332.666,203.473,321.88,196.8,315.206z"/>
	</g>
</g>
<g>
	<g>
		<path d="M160.243,482.869L29.137,351.763c-6.673-6.673-17.459-6.673-24.132,0c-6.673,6.673-6.673,17.459,0,24.132l131.106,131.106
			c3.328,3.328,7.697,5,12.066,5c4.369,0,8.738-1.672,12.066-5C166.916,500.329,166.916,489.542,160.243,482.869z"/>
	</g>
</g>
<g>
</g>
<g>
</g>
<g>
</g>
<g>
</g>
<g>
</g>
<g>
</g>
<g>
</g>
<g>
</g>
<g>
</g>
<g>
</g>
<g>
</g>
<g>
</g>
<g>
</g>
<g>
</g>
<g>
</g>
</svg>
