<?xml version="1.0" encoding="iso-8859-1"?>
<!-- Generator: Adobe Illustrator 19.0.0, SVG Export Plug-In . SVG Version: 6.00 Build 0)  -->
<svg version="1.1" id="Layer_1" xmlns="http://www.w3.org/2000/svg" xmlns:xlink="http://www.w3.org/1999/xlink" x="0px" y="0px"
	 viewBox="0 0 512 512" style="enable-background:new 0 0 512 512;" xml:space="preserve">
<g>
	<g>
		<path d="M197.478,116.599C88.576,116.599,0,205.193,0,314.078C0,422.98,88.576,511.573,197.478,511.573
			c108.885,0,197.478-88.593,197.478-197.495S306.381,116.599,197.478,116.599z M197.478,477.423
			c-90.078,0-163.345-73.284-163.345-163.345S107.401,150.75,197.478,150.75s163.345,73.267,163.345,163.328
			S287.556,477.423,197.478,477.423z"/>
	</g>
</g>
<g>
	<g>
		<path d="M505.156,6.383c-6.673-6.673-17.459-6.673-24.132,0l-166.997,166.98c-6.673,6.656-6.673,17.459,0,24.132
			c3.328,3.328,7.697,5.001,12.066,5.001s8.738-1.656,12.066-5.001l166.997-166.98C511.829,23.859,511.829,13.056,505.156,6.383z"/>
	</g>
</g>
<g>
	<g>
		<path d="M494.933,0.427c-9.438,0-17.067,7.646-17.067,17.067v95.573c0,9.421,7.629,17.067,17.067,17.067S512,122.504,512,113.067
			V17.493C512,8.072,504.371,0.427,494.933,0.427z"/>
	</g>
</g>
<g>
	<g>
		<path d="M494.933,0.427H383.42c-9.438,0-17.067,7.646-17.067,17.067c0,9.421,7.629,17.067,17.067,17.067h111.514
			c9.438,0,17.067-7.646,17.067-17.067C512,8.072,504.371,0.427,494.933,0.427z"/>
	</g>
</g>
<g>
</g>
<g>
</g>
<g>
</g>
<g>
</g>
<g>
</g>
<g>
</g>
<g>
</g>
<g>
</g>
<g>
</g>
<g>
</g>
<g>
</g>
<g>
</g>
<g>
</g>
<g>
</g>
<g>
</g>
</svg>
