<!-- Generated by IcoMoon.io -->
<svg version="1.1" xmlns="http://www.w3.org/2000/svg" width="1024" height="1024" viewBox="0 0 1024 1024">
<title></title>
<g id="icomoon-ignore">
</g>
<path fill="#000" d="M394.956 233.198c-217.804 0-394.956 177.188-394.956 394.958 0 217.804 177.152 394.99 394.956 394.99 217.77 0 394.956-177.186 394.956-394.99s-177.15-394.958-394.956-394.958zM394.956 954.846c-180.156 0-326.69-146.568-326.69-326.69s146.536-326.656 326.69-326.656 326.69 146.534 326.69 326.656-146.534 326.69-326.69 326.69z"></path>
<path fill="#000" d="M1010.312 12.766c-13.346-13.346-34.918-13.346-48.264 0l-333.994 333.96c-13.346 13.312-13.346 34.918 0 48.264 6.656 6.656 15.394 10.002 24.132 10.002s17.476-3.312 24.132-10.002l333.994-333.96c13.346-13.312 13.346-34.918 0-48.264z"></path>
<path fill="#000" d="M989.866 0.854c-18.876 0-34.134 15.292-34.134 34.134v191.146c0 18.842 15.258 34.134 34.134 34.134s34.134-15.26 34.134-34.134v-191.148c0-18.842-15.258-34.132-34.134-34.132z"></path>
<path fill="#000" d="M989.866 0.854h-223.026c-18.876 0-34.134 15.292-34.134 34.134s15.258 34.134 34.134 34.134h223.028c18.876 0 34.134-15.292 34.134-34.134-0.002-18.844-15.26-34.134-34.136-34.134z"></path>
</svg>
